<svg width="28" height="28" viewBox="0 0 28 28" fill="none" xmlns="http://www.w3.org/2000/svg">
<path d="M10.8233 21.6299C7.80417 21.6299 5.24517 20.5818 3.14634 18.4855C1.04878 16.3904 0 13.8336 0 10.815C0 7.79634 1.04878 5.23887 3.14634 3.14257C5.24391 1.04627 7.80291 -0.00125715 10.8233 1.13223e-06C13.8438 0.00125942 16.4022 1.04941 18.4985 3.14446C20.5948 5.2395 21.6436 7.79634 21.6448 10.815C21.6448 12.1261 21.4125 13.3951 20.9479 14.6219C20.4833 15.8487 19.8727 16.8981 19.116 17.7701L27.7158 26.3617C27.8921 26.5379 27.9865 26.7549 27.9991 27.0129C28.0104 27.2683 27.916 27.4967 27.7158 27.698C27.5144 27.8993 27.2915 28 27.0473 28C26.803 28 26.5802 27.8993 26.3787 27.698L17.7808 19.1045C16.8365 19.9086 15.7506 20.5308 14.523 20.9712C13.2955 21.4116 12.0616 21.6318 10.8215 21.6318M10.8215 19.7444C13.327 19.7444 15.4428 18.8825 17.1689 17.1586C18.8938 15.4348 19.7562 13.3202 19.7562 10.815C19.7562 8.30972 18.8944 6.1958 17.1708 4.47321C15.4472 2.75061 13.332 1.88869 10.8252 1.88743C8.31849 1.88743 6.20267 2.74935 4.47778 4.47321C2.75289 6.19706 1.88982 8.31098 1.88856 10.815C1.8873 13.319 2.74975 15.4329 4.47589 17.1567C6.20204 18.8806 8.31723 19.7425 10.8215 19.7425" fill="black"/>
</svg>
